#!OML:ASF F:\VICON\USERDATA\INSTALL\rory3\rory3.ASF
:FULLY-SPECIFIED
:DEGREES
1638
root 1.64264 17.2484 -0.305299 3.0879 -5.92286 12.5468
lowerback 2.6696 -0.7265 15.6876
upperback -3.54739 0.596505 17.627
thorax -5.56358 0.0993247 10.7268
lowerneck -13.0605 -9.26675 -2.48733
upperneck 32.8439 -26.5033 29.4178
head 22.5761 -7.82763 9.44701
rclavicle 6.85807e-015 -9.22361e-014
rhumerus 29.1092 -68.5803 -66.7133
rradius 103.633
rwrist -64.3602
rhand -54.6226 -14.4352
rfingers 7.12502
rthumb -27.0192 -42.5226
lclavicle 6.85807e-015 -9.22361e-014
lhumerus 281.609 -40.8314 -230.531
lradius 81.4842
lwrist -12.3031
lhand -23.2511 0.343705
lfingers 7.12502
lthumb 3.20057 30.2994
rfemur -8.87316 22.1255 -1.88233
rtibia 22.0325
rfoot -17.8564 -17.9333
rtoes -22.2006
lfemur 2.26331 -10.2892 -37.9818
ltibia 4.77083e-015
lfoot -5.61303 8.51798
ltoes -9.8753
1639
root 1.64315 17.2473 -0.302337 3.09371 -5.88211 12.5613
lowerback 2.61509 -0.707714 15.6735
upperback -3.53511 0.602542 17.6269
thorax -5.51771 0.10399 10.7303
lowerneck -13.0712 -9.2729 -2.44919
upperneck 32.7892 -26.5361 29.493
head 22.578 -7.83126 9.46763
rclavicle -2.68359e-015 5.08889e-014
rhumerus 28.9764 -68.5653 -66.6571
rradius 103.788
rwrist -64.3939
rhand -54.7922 -14.7955
rfingers 7.12502
rthumb -27.1814 -42.8577
lclavicle -2.68359e-015 5.08889e-014
lhumerus 281.611 -40.9683 -230.451
lradius 81.4532
lwrist -12.2494
lhand -23.1969 0.321685
lfingers 7.12502
lthumb 3.25291 30.2766
rfemur -8.9079 22.3802 -1.87646
rtibia 22.1593
rfoot -17.8953 -18.1935
rtoes -22.3982
lfemur 2.27407 -10.4459 -38.002
ltibia -1.59028e-015
lfoot -5.64333 8.61185
ltoes -9.99541
1640
root 1.64697 17.2415 -0.29472 2.95498 -5.83278 12.8316
lowerback 2.58963 -0.720979 15.4546
upperback -3.46155 0.546779 17.5613
thorax -5.41103 0.0860851 10.764
lowerneck -13.1388 -9.28602 -2.45901
upperneck 32.7148 -26.5821 29.593
head 22.6198 -7.84511 9.50808
rclavicle -1.14301e-014 -5.725e-014
rhumerus 29.0548 -68.5463 -66.7806
rradius 103.829
rwrist -64.4305
rhand -54.9287 -14.4368
rfingers 7.12502
rthumb -27.312 -42.4784
lclavicle -1.14301e-014 -5.725e-014
lhumerus 281.694 -41.1298 -230.393
lradius 81.4094
lwrist -12.1842
lhand -23.1945 0.319555
lfingers 7.12502
lthumb 3.25529 30.2745
rfemur -8.79132 22.358 -2.13063
rtibia 22.2993
rfoot -17.9422 -18.2235
rtoes -22.6293
lfemur 2.43967 -10.5886 -38.3469
ltibia 5.56597e-015
lfoot -5.59444 8.74589
ltoes -10.32
1641
root 1.65136 17.235 -0.287675 2.84347 -5.76005 13.1183
lowerback 2.51092 -0.744257 15.2077
upperback -3.37281 0.459125 17.5184
thorax -5.25403 0.0548705 10.8407
lowerneck -13.2774 -9.29051 -2.47849
upperneck 32.7125 -26.6221 29.6219
head 22.717 -7.85273 9.52332
rclavicle -7.85199e-015 6.67916e-014
rhumerus 29.4733 -68.5203 -67.2063
rradius 103.883
rwrist -64.3696
rhand -54.9127 -14.4667
rfingers 7.12502
rthumb -27.2967 -42.5108
lclavicle -7.85199e-015 6.67916e-014
lhumerus 281.856 -41.2751 -230.376
lradius 81.3701
lwrist -12.1129
lhand -23.2188 0.375414
lfingers 7.12502
lthumb 3.23184 30.3307
rfemur -8.69082 22.1937 -2.42509
rtibia 22.4229
rfoot -18.0537 -18.131
rtoes -22.5539
lfemur 2.57067 -10.762 -38.7066
ltibia 8.74653e-015
lfoot -5.51652 8.85017
ltoes -10.9801
1642
root 1.65341 17.2346 -0.286416 2.8631 -5.69608 13.1594
lowerback 2.42047 -0.748062 15.1481
upperback -3.33772 0.419151 17.5492
thorax -5.1585 0.0403338 10.9081
lowerneck -13.3249 -9.27416 -2.44539
upperneck 32.7319 -26.5777 29.565
head 22.6888 -7.82572 9.4893
rclavicle -1.31198e-014 1.27222e-013
rhumerus 29.6357 -68.4683 -67.404
rradius 104.025
rwrist -64.3554
rhand -54.8301 -14.8376
rfingers 7.12502
rthumb -27.2176 -42.894
lclavicle -1.31198e-014 1.27222e-013
lhumerus 281.956 -41.3896 -230.313
lradius 81.3405
lwrist -12.06
lhand -23.2953 0.284583
lfingers 7.12502
lthumb 3.15787 30.2409
rfemur -8.72591 22.1359 -2.47126
rtibia 22.5177
rfoot -18.1302 -18.1333
rtoes -22.2518
lfemur 2.55923 -10.9473 -38.7611
ltibia 5.56597e-015
lfoot -5.51501 8.92796
ltoes -10.9559
1643
root 1.65554 17.2345 -0.285716 2.86769 -5.62969 13.1745
lowerback 2.40055 -0.764633 15.1202
upperback -3.32465 0.388873 17.5694
thorax -5.13016 0.0279595 10.9491
lowerneck -13.3442 -9.25732 -2.39312
upperneck 32.7605 -26.5384 29.5034
head 22.6521 -7.79978 9.44902
rclavicle 2.26615e-014 -1.52667e-013
rhumerus 29.6002 -68.4087 -67.4224
rradius 104.106
rwrist -64.35
rhand -54.8282 -14.9118
rfingers 7.12502
rthumb -27.2159 -42.9686
lclavicle 2.26615e-014 -1.52667e-013
lhumerus 281.954 -41.492 -230.231
lradius 81.3244
lwrist -12.009
lhand -23.3309 0.225503
lfingers 7.12502
lthumb 3.12355 30.1824
rfemur -8.73399 22.1074 -2.47659
rtibia 22.6047
rfoot -18.1196 -18.2017
rtoes -22.2848
lfemur 2.57326 -11.1279 -38.7878
ltibia 1.27222e-014
lfoot -5.57865 9.02229
ltoes -9.99895
1644
root 1.65827 17.2344 -0.283694 2.90114 -5.55293 13.0553
lowerback 2.33155 -0.774269 15.2604
upperback -3.30502 0.360693 17.6054
thorax -5.06761 0.0112787 10.9146
lowerneck -13.4034 -9.27862 -2.36767
upperneck 32.7827 -26.5751 29.458
head 22.6777 -7.80426 9.40643
rclavicle -1.53064e-014 6.04305e-014
rhumerus 29.6818 -68.4015 -67.5321
rradius 104.126
rwrist -64.273
rhand -54.8184 -14.7188
rfingers 7.12502
rthumb -27.2065 -42.777
lclavicle -1.53064e-014 6.04305e-014
lhumerus 281.974 -41.6192 -230.185
lradius 81.3026
lwrist -11.9957
lhand -23.3957 0.164719
lfingers 7.12502
lthumb 3.06094 30.1225
rfemur -8.75123 22.0518 -2.33763
rtibia 22.6788
rfoot -18.1028 -18.2368
rtoes -22.2385
lfemur 2.57418 -11.3167 -38.6702
ltibia 4.77083e-015
lfoot -5.61806 9.1446
ltoes -9.33862
1645
root 1.66331 17.2298 -0.277796 2.79633 -5.47976 13.272
lowerback 2.33825 -0.812328 15.0816
upperback -3.28247 0.29815 17.5635
thorax -5.03831 -0.012963 10.9628
lowerneck -13.4061 -9.30069 -2.40891
upperneck 32.8265 -26.6063 29.4192
head 22.7236 -7.82208 9.39529
rclavicle 7.55382e-015 1.27222e-014
rhumerus 29.4459 -68.3422 -67.3375
rradius 104.104
rwrist -64.2331
rhand -54.8187 -14.2472
rfingers 7.12502
rthumb -27.2068 -42.3054
lclavicle 7.55382e-015 1.27222e-014
lhumerus 281.997 -41.6786 -230.144
lradius 81.2689
lwrist -11.9785
lhand -23.4652 0.0839549
lfingers 7.12502
lthumb 2.99383 30.0427
rfemur -8.63475 21.9034 -2.55236
rtibia 22.7574
rfoot -18.1087 -18.1413
rtoes -22.1422
lfemur 2.70536 -11.4858 -38.9618
ltibia -7.95139e-016
lfoot -5.59837 9.27703
ltoes -9.63085
1646
root 1.66898 17.2233 -0.270755 2.64577 -5.4267 13.5687
lowerback 2.42068 -0.853845 14.8533
upperback -3.28391 0.253704 17.4719
thorax -5.08005 -0.0290591 10.9803
lowerneck -13.3327 -9.3031 -2.45172
upperneck 32.8741 -26.6121 29.4095
head 22.7504 -7.83614 9.41507
rclavicle 2.3059e-014 -8.5875e-014
rhumerus 28.878 -68.274 -66.8177
rradius 104.006
rwrist -64.1407
rhand -54.9947 -12.8415
rfingers 7.12502
rthumb -27.3751 -40.8733
lclavicle 2.3059e-014 -8.5875e-014
lhumerus 281.916 -41.6942 -230.069
lradius 81.223
lwrist -12.0448
lhand -23.5762 0.120382
lfingers 7.12502
lthumb 2.88668 30.0806
rfemur -8.46733 21.8455 -2.84605
rtibia 22.8323
rfoot -18.206 -18.0592
rtoes -21.8116
lfemur 2.88325 -11.6259 -39.3491
ltibia 5.56597e-015
lfoot -5.5882 9.40988
ltoes -10.1624
1647
root 1.67092 17.2225 -0.26733 2.61288 -5.38973 13.5814
lowerback 2.43286 -0.8474 14.8597
upperback -3.27246 0.263332 17.4576
thorax -5.07477 -0.0244484 10.9577
lowerneck -13.3485 -9.32231 -2.42381
upperneck 32.9236 -26.6447 29.3486
head 22.7734 -7.84083 9.37147
rclavicle 1.88845e-014 -2.38542e-013
rhumerus 28.6782 -68.3096 -66.6294
rradius 103.949
rwrist -63.9985
rhand -55.2663 -11.9771
rfingers 7.12502
rthumb -27.6348 -39.9675
lclavicle 1.88845e-014 -2.38542e-013
lhumerus 281.866 -41.828 -229.973
lradius 81.1709
lwrist -12.0801
lhand -23.6534 0.136959
lfingers 7.12502
lthumb 2.81206 30.0982
rfemur -8.43509 21.9331 -2.83556
rtibia 22.9068
rfoot -18.265 -18.1582
rtoes -21.5649
lfemur 2.94037 -11.7661 -39.3894
ltibia 1.59028e-015
lfoot -5.53084 9.5428
ltoes -10.5119
1648
root 1.67368 17.2217 -0.26604 2.61979 -5.31253 13.5369
lowerback 2.39325 -0.844158 14.909
upperback -3.25858 0.257768 17.4846
thorax -5.03676 -0.0271102 10.9618
lowerneck -13.4027 -9.33702 -2.43294
upperneck 32.9782 -26.6582 29.2744
head 22.8107 -7.84174 9.33324
rclavicle 1.47101e-014 -3.18055e-015
rhumerus 28.7163 -68.3298 -66.6837
rradius 104.036
rwrist -64.149
rhand -55.3142 -12.9358
rfingers 7.12502
rthumb -27.6806 -40.9188
lclavicle 1.47101e-014 -3.18055e-015
lhumerus 281.886 -41.9843 -229.872
lradius 81.0993
lwrist -12.0487
lhand -23.6508 0.110855
lfingers 7.12502
lthumb 2.81463 30.072
rfemur -8.42032 21.7895 -2.78567
rtibia 22.9533
rfoot -18.2594 -18.0648
rtoes -21.665
lfemur 2.95358 -11.953 -39.3605
ltibia 3.18055e-015
lfoot -5.56571 9.67724
ltoes -10.1133
1649
root 1.67576 17.2212 -0.263898 2.6098 -5.26585 13.4626
lowerback 2.42385 -0.844844 14.9556
upperback -3.27348 0.273771 17.5322
thorax -5.07489 -0.0197383 10.9974
lowerneck -13.3644 -9.33598 -2.5378
upperneck 32.9745 -26.6376 29.3067
head 22.8347 -7.85379 9.38922
rclavicle -2.85256e-014 1.30403e-013
rhumerus 28.5916 -68.3519 -66.6019
rradius 104.173
rwrist -64.2954
rhand -55.1011 -13.9511
rfingers 7.12502
rthumb -27.4769 -41.9666
lclavicle -2.85256e-014 1.30403e-013
lhumerus 281.826 -42.0217 -229.729
lradius 81.0553
lwrist -12.0054
lhand -23.6236 0.0662855
lfingers 7.12502
lthumb 2.84089 30.0271
rfemur -8.40424 21.6964 -2.69102
rtibia 23.0034
rfoot -18.2724 -18.0029
rtoes -21.6794
lfemur 2.98704 -12.1032 -39.2999
ltibia -2.22639e-014
lfoot -5.58045 9.7917
ltoes -10.2026
